HIERARCHY
ROOT Hips
{
  OFFSET -61.3549 37.6655 2.31808
  CHANNELS 6 Xposition Yposition Zposition Zrotation Xrotation Yrotation
  JOINT ToSpine
  {
    OFFSET -2.69724 7.43032 -0.144315
    CHANNELS 3 Zrotation Xrotation Yrotation
    JOINT Spine
    {
      OFFSET -0.0310711 10.7595 1.96963
      CHANNELS 3 Zrotation Xrotation Yrotation
      JOINT Spine1
      {
        OFFSET 13.1342 3.43533 0.764692
        CHANNELS 3 Zrotation Xrotation Yrotation
        JOINT Neck
        {
          OFFSET 29.8703 7.82586 -0.130764
          CHANNELS 3 Zrotation Xrotation Yrotation
          JOINT Head
          {
            OFFSET 9.52751 0.295786 -0.907742
            CHANNELS 3 Zrotation Xrotation Yrotation
            End Site
            {
              OFFSET 16.4037 0.713936 2.7358
            }
          }
        }
        JOINT LeftShoulder
        {
          OFFSET 27.5574 4.95586 2.47156
          CHANNELS 3 Zrotation Xrotation Yrotation
          JOINT LeftArm
          {
            OFFSET 1.20734 -0.998971 20.1238
            CHANNELS 3 Zrotation Xrotation Yrotation
            JOINT LeftForeArm
            {
              OFFSET 26.8049 -0.0536703 -0.155908
              CHANNELS 3 Zrotation Xrotation Yrotation
              JOINT LeftHand
              {
                OFFSET 26.6817 0 0.320147
                CHANNELS 3 Zrotation Xrotation Yrotation
                End Site
                {
                  OFFSET 18.6119 0 0.382219
                }
              }
            }
          }
        }
        JOINT RightShoulder
        {
          OFFSET 27.5927 4.71444 -2.65209
          CHANNELS 3 Zrotation Xrotation Yrotation
          JOINT RightArm
          {
            OFFSET 2.83739 -1.17114 -18.7564
            CHANNELS 3 Zrotation Xrotation Yrotation
            JOINT RightForeArm
            {
              OFFSET 28.839 -0.0548439 1.22491
              CHANNELS 3 Zrotation Xrotation Yrotation
              JOINT RightHand
              {
                OFFSET 26.5114 0 -0.101894
                CHANNELS 3 Zrotation Xrotation Yrotation
                End Site
                {
                  OFFSET 18.2168 0 0
                }
              }
            }
          }
        }
      }
    }
  }
  JOINT LeftUpLeg
  {
    OFFSET -4.76168 -1.9167 -10.2353
    CHANNELS 3 Zrotation Xrotation Yrotation
    JOINT LeftLeg
    {
      OFFSET 2.55951 -42.0585 -8.02213
      CHANNELS 3 Zrotation Xrotation Yrotation
      JOINT LeftFoot
      {
        OFFSET 3.16357 -42.5282 -3.95426
        CHANNELS 3 Zrotation Xrotation Yrotation
        JOINT LeftToeBase
        {
          OFFSET 0.346054 -6.02161 12.8035
          CHANNELS 3 Zrotation Xrotation Yrotation
          End Site
          {
            OFFSET 0.134235 -1.35082 5.13018
          }
        }
      }
    }
  }
  JOINT RightUpLeg
  {
    OFFSET -4.94151 -1.41743 10.6446
    CHANNELS 3 Zrotation Xrotation Yrotation
    JOINT RightLeg
    {
      OFFSET -2.56294 -42.0364 -7.94377
      CHANNELS 3 Zrotation Xrotation Yrotation
      JOINT RightFoot
      {
        OFFSET -3.0952 -42.555 -4.02241
        CHANNELS 3 Zrotation Xrotation Yrotation
        JOINT RightToeBase
        {
          OFFSET -0.0828122 -6.13587 12.8035
          CHANNELS 3 Zrotation Xrotation Yrotation
          End Site
          {
            OFFSET -0.131328 -1.35082 5.13018
          }
        }
      }
    }
  }
}
MOTION
Frames:	12
Frame Time:	0.0333333
-82.8403 45.5576 17.5912 26.5812 9.77769 -3.44224 -70.1915 0 88.8779 159.513 46.7349 -61.5985 -17.5847 19.4862 5.92593 -176.278 36.22 177.569 -176.866 76.2371 -141.681 -0.397062 -23.8242 -19.9578 -101.31 -9.66998 -121.856 7.62921 9.9931 -37.3936 0.420957 0.000575573 0.358661 2.14524 17.9099 -1.81666 -118.636 -15.9919 127.49 21.5104 -36.2858 33.6536 0.58676 0.000330964 0.0646657 -27.0188 9.59306 84.4517 -149.079 79.1079 131.789 -2.38227 -6.55084 -0.434336 18.1951 -28.4781 30.6375 17.3113 1.41961 81.0496 171.714 38.2203 -174.98 -7.51854 -6.59638 1.20302 9.05924 -49.5696 6.69155 
-83.4165 45.8462 18.3862 29.0184 12.0148 -4.4329 -70.1915 0 88.8779 159.977 47.1808 -61.7339 -17.0379 20.0975 5.65763 -177.427 37.681 -179.795 178.876 77.8453 -138.166 -0.885506 -24.4552 -23.1392 -97.9667 -5.54918 -117.418 11.2409 10.6472 -46.6961 0.420957 0.000575573 0.358661 1.99828 18.7574 -0.442489 -118.973 -13.5465 125.387 20.3522 -37.3779 31.8506 0.58676 0.000330964 0.0646657 -26.3018 8.05744 82.9891 -153.005 77.3321 135.546 -3.01123 -3.96152 -0.115703 15.9477 -26.8442 25.5598 15.74 -0.189717 82.1925 171.554 37.6048 -173.251 -8.00345 -5.57184 1.22977 8.69303 -50.0177 5.2783 
-84.0306 46.0699 19.0424 31.2558 14.8979 -5.47001 -70.1915 0 88.8779 159.81 48.0788 -61.7842 -16.7416 20.7081 5.31341 -177.436 38.9654 -179.993 -173.199 79.5241 -146.495 -1.37939 -25.0477 -26.107 -93.4386 -0.877112 -111.773 15.7505 10.6018 -56.3922 0.420957 0.000575573 0.358661 1.56493 18.7753 2.10077 -119.483 -10.5791 123.652 17.1114 -38.4586 28.246 0.58676 0.000330964 0.0646657 -24.0687 6.74989 82.1753 -157.383 74.3307 139.303 -2.8069 -1.88192 0.0792477 13.7595 -24.8054 21.1115 14.31 -2.56319 83.6078 171.454 36.9102 -172 -7.70374 -6.01148 1.21011 8.45653 -47.8586 6.12729 
-84.7805 46.4223 20.0072 34.6512 17.0926 -6.119 -70.1915 0 88.8779 160.794 47.4612 -63.3638 -16.8233 21.4585 5.40751 -179.428 40.0409 -178.375 -176.085 80.8552 -145.793 -1.79577 -24.7671 -29.4935 -87.5977 1.72126 -106.519 19.2618 9.75268 -63.5921 0.420957 0.000575573 0.358661 1.41646 19.1119 3.08995 -121.933 -9.34333 121.316 13.8424 -41.8079 23.9916 0.58676 0.000330964 0.0646657 -21.7685 7.54921 81.3275 -160.966 70.7887 143.684 -1.96935 -3.31652 -0.152566 13.1253 -23.9364 21.746 11.8118 -4.33079 83.2869 171.571 37.0112 -173.111 -6.45023 -6.23477 1.11763 8.70844 -43.7206 10.7247 
-85.7188 46.744 20.5126 36.9818 21.3643 -6.93261 -70.1915 0 88.8779 159.142 48.985 -62.2334 -15.7288 21.6168 4.36129 -177.389 41.6067 179.44 -163.148 82.2115 -157.766 -1.86953 -24.3588 -30.6579 -81.1702 5.74704 -102.481 22.346 9.6837 -67.1698 0.420957 0.000575573 0.358661 0.808481 18.313 6.45767 -121.414 -4.75763 120.369 10.3221 -45.2148 19.9027 0.58676 0.000330964 0.0646657 -16.6482 6.70969 81.2831 -163.803 67.7773 151.429 0.362912 -3.53631 -0.402733 13.1729 -24.0366 21.3573 10.6237 -8.56116 84.2806 171.557 36.4786 -172.764 -7.0628 -6.70994 1.17183 10.035 -45.6572 13.3708 
-86.6836 46.9702 21.1809 40.0552 24.2401 -7.90293 -70.1915 0 88.8779 158.494 49.4517 -63.1759 -15.2948 21.9692 4.28259 -174.186 43.072 177.957 -165.833 83.3475 -153.796 -2.01687 -24.1637 -32.0814 -75.1076 8.96834 -98.0891 23.6774 9.99416 -67.8242 0.420957 0.000575573 0.358661 0.362822 17.5072 9.11219 -120.364 -1.4587 118.365 9.67382 -44.7835 19.6765 0.58676 0.000330964 0.0646657 -12.0577 7.51126 81.72 -165.826 65.3563 158.437 2.81887 -4.96428 -0.720788 13.472 -24.5453 20.1958 8.91223 -11.2312 84.4401 171.468 35.9729 -171.693 -6.48391 -6.91937 1.13491 9.28921 -45.3731 11.1047 
-87.4069 47.3059 21.8198 43.5937 26.2512 -9.40575 -70.1915 0 88.8779 157.472 49.5863 -64.9985 -14.3907 22.1237 4.68267 -169.283 44.0337 174.457 -160.269 83.8948 -157.293 -1.8821 -23.4308 -32.3244 -70.659 13.0719 -94.4452 23.4581 10.7886 -66.0908 0.420957 0.000575573 0.358661 -0.0425955 16.1407 11.8193 -117.963 0.916277 116.141 11.3244 -35.6354 23.8119 0.58676 0.000330964 0.0646657 -8.17908 8.94689 82.7446 -166.658 63.3692 160.011 3.24031 -6.96464 -0.858606 13.4182 -24.2183 22.5364 6.52647 -13.1986 84.8124 171.38 35.8384 -170.749 -5.67783 -6.89285 1.07793 8.68756 -44.666 9.68485 
-88.1484 47.4477 22.2601 46.2606 28.2484 -9.99823 -70.1915 0 88.8779 156.534 50.0776 -65.4435 -13.332 22.4617 4.05339 -164.239 44.6817 170.298 -151.026 84.2379 -165.054 -1.76713 -23.0142 -32.1578 -67.6671 16.9636 -90.789 23.2185 11.9532 -63.6628 0.420957 0.000575573 0.358661 -0.473418 14.6138 15.2582 -117.05 2.14754 114.84 11.0188 -29.6702 25.0635 0.58676 0.000330964 0.0646657 -2.91308 10.4805 83.2467 -167.495 61.1899 162.019 3.05793 -10.4246 -1.02961 12.5468 -23.2728 21.0311 4.55067 -15.0987 84.4004 171.356 35.7437 -170.485 -7.2313 -6.72176 1.18406 8.284 -44.4237 8.45614 
-88.7608 47.7147 22.5888 49.0153 29.8412 -10.5583 -70.1915 0 88.8779 155.591 50.2373 -65.7641 -12.0536 22.4715 3.53378 -161.366 45.1834 168.907 -161.128 84.8206 -154.299 -1.55271 -22.1954 -31.8919 -66.1351 20.4971 -87.48 23.5574 13.8631 -60.6516 0.420957 0.000575573 0.358661 -0.754998 14.1994 17.5825 -115.096 2.93514 113.04 11.4726 -30.5329 25.3566 0.58676 0.000330964 0.0646657 1.77663 12.4108 84.3023 -168.07 59.4762 163.516 2.39496 -12.917 -1.15325 11.8375 -22.4272 20.1975 2.22327 -16.9557 83.6661 171.256 35.8747 -169.48 -8.06296 -6.381 1.24085 9.18765 -47.7622 8.53871 
-89.2298 47.9765 22.8138 52.1345 30.9365 -12.0473 -70.1915 0 88.8779 154.441 50.1411 -66.8521 -10.6832 22.6115 2.82551 -158.075 45.4894 166.763 -173.477 85.0502 -141.072 -1.25346 -21.1916 -31.1496 -65.6273 23.4261 -84.589 21.9779 14.8968 -56.9629 0.420957 0.000575573 0.358661 -1.29234 14.0261 21.8497 -109.974 6.39409 111.242 10.1778 -28.3643 25.0813 0.58676 0.000330964 0.0646657 5.6384 13.9517 86.6972 -168.133 57.7802 161.551 2.77513 -13.2295 -1.17661 13.206 -23.8344 23.7372 -0.342554 -18.5429 83.5429 171.218 35.9696 -169.11 -9.56264 -6.39986 1.35234 8.76846 -49.5223 5.8546 
-89.6646 48.2064 23.1392 54.7068 31.6492 -13.3995 -70.1915 0 88.8779 153.539 50.2071 -68.5809 -9.5817 22.8988 2.71524 -156.278 45.5604 164.632 -169.737 85.2778 -144.888 -1.06443 -20.4482 -30.8338 -65.3996 25.8223 -81.6235 19.6897 14.7859 -53.9855 0.420957 0.000575573 0.358661 -1.74232 13.1062 26.3607 -104.641 9.38876 109.513 9.7834 -24.2469 26.0212 0.58676 0.000330964 0.0646657 9.49029 16.0998 89.4265 -168.271 56.7199 161.154 2.84762 -12.5909 -1.14189 13.4186 -24.3133 21.663 -2.28945 -19.4668 83.507 171.335 36.2046 -170.388 -9.46101 -6.89006 1.34258 9.91643 -49.1777 9.57984 
-89.9575 48.3879 23.1265 57.155 32.2016 -14.4506 -70.1915 0 88.8779 153.155 50.4506 -70.1201 -8.41214 23.2027 3.18269 -155.455 45.9368 164.61 -173.931 85.6263 -141.058 -1.15517 -20.3928 -31.8996 -65.0749 27.2769 -78.8699 19.32 16.0221 -51.2763 0.420957 0.000575573 0.358661 -2.11739 12.7525 29.9343 -100.112 11.9743 106.873 9.51308 -21.9156 26.5812 0.58676 0.000330964 0.0646657 12.6449 18.0814 92.2307 -168.032 55.7588 157.762 1.78667 -13.6647 -1.19299 12.5338 -23.1705 21.984 -4.31875 -20.3204 83.7286 171.249 36.1017 -169.477 -8.95517 -7.46488 1.30714 8.58875 -47.4281 6.89102 
